<svg xmlns="http://www.w3.org/2000/svg" width="55" height="53" viewBox="0 0 55 53">
  <defs>
    <style>
      .cls-1 {
        fill-rule: evenodd;
      }
    </style>
  </defs>
  <path id="Forma_1" data-name="Forma 1" class="cls-1" d="M45.058,24.012a0.995,0.995,0,1,1-1,.995A1,1,0,0,1,45.058,24.012Zm-36.029,0a0.995,0.995,0,1,1-1,.995A1,1,0,0,1,9.029,24.012Zm3,2.984a0.995,0.995,0,1,1-1,.995A1,1,0,0,1,12.032,27Zm6,0a0.995,0.995,0,1,1-1,.995A1,1,0,0,1,18.036,27Zm-3,2.983a0.995,0.995,0,1,1-1,.995A1,1,0,0,1,15.034,29.979Zm6,0a0.995,0.995,0,1,1-1,.995A1,1,0,0,1,21.039,29.979Zm3,2.984a0.995,0.995,0,1,1-1,.995A1,1,0,0,1,24.041,32.963Zm6,0a0.995,0.995,0,1,1-1,.995A1,1,0,0,1,30.046,32.963Zm3-2.984a0.995,0.995,0,1,1-1,.995A1,1,0,0,1,33.048,29.979Zm-6,5.968a0.995,0.995,0,1,1-1,.994A1,1,0,0,1,27.044,35.947ZM36.051,27a0.995,0.995,0,1,1-1,.995A1,1,0,0,1,36.051,27Zm6,0a0.995,0.995,0,1,1-1,.995A1,1,0,0,1,42.056,27Zm-3,2.983a0.995,0.995,0,1,1-1,.995A1,1,0,0,1,39.053,29.979ZM45.6,31.79L55,26.452,45.334,21,55,15.512,27.5-.006,0,15.512,9.665,21,0,26.452l9.664,5.487L0,37.392,27.5,53,55,37.392l-9.664-5.453,0.071-.041A0.956,0.956,0,0,0,45.6,31.79ZM27.5,2.28L50.955,15.517l-7.643,4.34h0L27.5,28.834,4.045,15.517ZM11.139,22.454a0.99,0.99,0,0,0,1.585.282l2.264,1.285a0.991,0.991,0,1,0,1.047.986A0.964,0.964,0,0,0,15.9,24.54l10.338,5.87a0.964,0.964,0,0,0-.2.564,1,1,0,0,0,2,0,0.854,0.854,0,0,0-.029-0.142l10.06-5.712a0.987,0.987,0,0,0,.978.88,1,1,0,0,0,1-.995,0.972,0.972,0,0,0-.406-0.779l2.2-1.251a0.937,0.937,0,0,0,.2.041,0.989,0.989,0,0,0,.939-0.69l0.32-.182,7.64,4.311L48.97,27.583a1,1,0,0,0-1.91.407,0.966,0.966,0,0,0,.2.565L43.312,30.8h0l-6.393,3.63a0.964,0.964,0,0,0,.134-0.469,1,1,0,1,0-1.044.986l-2.265,1.286a1,1,0,0,0-1.7.712,0.946,0.946,0,0,0,.046.224L27.5,39.773,21.98,36.638a0.989,0.989,0,0,0-.94-0.692,0.948,0.948,0,0,0-.206.042l-2.2-1.25a0.975,0.975,0,0,0,.407-0.78,1,1,0,0,0-1-.995,0.988,0.988,0,0,0-.978.882L7,28.134a0.983,0.983,0,0,0,.029-0.143,1,1,0,0,0-1-.995,0.984,0.984,0,0,0-.622.234l-1.36-.772ZM50.954,37.4L27.5,50.714,4.045,37.4l7.639-4.311L27.5,42.064l15.815-8.979Z"/>
</svg>
