<svg xmlns="http://www.w3.org/2000/svg" width="49" height="59" viewBox="0 0 49 59">
  <defs>
    <style>
      .cls-1 {
        fill-rule: evenodd;
      }
    </style>
  </defs>
  <path class="cls-1" d="M21.863,41.889a0.924,0.924,0,0,0-.919.928v3.134a0.92,0.92,0,1,0,1.839,0V42.817A0.924,0.924,0,0,0,21.863,41.889Zm5.128,4.041a0.924,0.924,0,0,0-.92.928v5.195a0.92,0.92,0,1,0,1.839,0V46.858A0.924,0.924,0,0,0,26.991,45.93Zm22,11.275a8.069,8.069,0,0,0-8.018-7.267H38.107a10.308,10.308,0,0,0-5.782-2.4v-7.74h2.158A12.613,12.613,0,0,0,46.071,22.522,12.219,12.219,0,0,0,33.687,4.062a12.1,12.1,0,0,0-18.087,0A12.166,12.166,0,0,0,1.463,16.174a12.3,12.3,0,0,0,1.753,6.348A12.523,12.523,0,0,0,16.963,39.607V50.478a8.768,8.768,0,0,0-4.708-1.364A8.893,8.893,0,0,0,5.4,52.375,5.651,5.651,0,0,0,.024,57.1a1.634,1.634,0,0,0,.356,1.324A1.59,1.59,0,0,0,1.6,59H47.4a1.6,1.6,0,0,0,1.188-.534A1.639,1.639,0,0,0,48.991,57.2ZM14.8,37.939A10.755,10.755,0,0,1,5.09,22.816a0.934,0.934,0,0,0-.073-0.892A10.436,10.436,0,0,1,13.629,5.757a10.313,10.313,0,0,1,2.134.223,0.916,0.916,0,0,0,.9-0.319,10.27,10.27,0,0,1,15.962,0,0.916,0.916,0,0,0,.9.319,10.327,10.327,0,0,1,12.46,10.194,10.435,10.435,0,0,1-1.715,5.75,0.934,0.934,0,0,0-.073.892,10.755,10.755,0,0,1-9.715,15.123,10.462,10.462,0,0,1-4.713-1.108,0.912,0.912,0,0,0-.665-0.059,15.9,15.9,0,0,1-8.924,0,0.914,0.914,0,0,0-.665.059A10.461,10.461,0,0,1,14.8,37.939ZM1.892,57.144a3.807,3.807,0,0,1,3.7-2.918c0.069,0,.138,0,0.206.006a0.916,0.916,0,0,0,.789-0.375,7.055,7.055,0,0,1,5.667-2.888,6.971,6.971,0,0,1,4.919,2.023,0.915,0.915,0,0,0,.836.243,4.895,4.895,0,0,1,5.857,3.909H1.892Zm28.593,0H25.729a6.774,6.774,0,0,0-6.68-5.876q-0.123,0-.247.005V39.135a12.46,12.46,0,0,0,1.208-.485,17.737,17.737,0,0,0,9.268,0,12.417,12.417,0,0,0,1.208.485V57.144h0Zm1.839,0V49.4A8.539,8.539,0,0,1,37.64,52.03a0.914,0.914,0,0,0,1.007.218,6.144,6.144,0,0,1,2.326-.455,6.225,6.225,0,0,1,6.157,5.351H32.325Z"/>
</svg>
